<?xml version="1.0" encoding="UTF-8" standalone="no"?>
<!-- Generator: Adobe Illustrator 18.0.0, SVG Export Plug-In . SVG Version: 6.00 Build 0)  -->

<svg
   xmlns:dc="http://purl.org/dc/elements/1.1/"
   xmlns:cc="http://creativecommons.org/ns#"
   xmlns:rdf="http://www.w3.org/1999/02/22-rdf-syntax-ns#"
   xmlns:svg="http://www.w3.org/2000/svg"
   xmlns="http://www.w3.org/2000/svg"
   xmlns:sodipodi="http://sodipodi.sourceforge.net/DTD/sodipodi-0.dtd"
   xmlns:inkscape="http://www.inkscape.org/namespaces/inkscape"
   version="1.1"
   id="Ebene_1"
   x="0px"
   y="0px"
   viewBox="0 0 32 32"
   enable-background="new 0 0 32 32"
   xml:space="preserve"
   inkscape:version="0.91 r13725"
   sodipodi:docname="essential-regular-21-tick-circle.svg"><metadata
     id="metadata3347"><rdf:RDF><cc:Work
         rdf:about=""><dc:format>image/svg+xml</dc:format><dc:type
           rdf:resource="http://purl.org/dc/dcmitype/StillImage" /></cc:Work></rdf:RDF></metadata><defs
     id="defs3345" /><sodipodi:namedview
     pagecolor="#ffffff"
     bordercolor="#666666"
     borderopacity="1"
     objecttolerance="10"
     gridtolerance="10"
     guidetolerance="10"
     inkscape:pageopacity="0"
     inkscape:pageshadow="2"
     inkscape:window-width="1280"
     inkscape:window-height="961"
     id="namedview3343"
     showgrid="false"
     inkscape:zoom="4.2094951"
     inkscape:cx="16"
     inkscape:cy="16"
     inkscape:window-x="-8"
     inkscape:window-y="-8"
     inkscape:window-maximized="1"
     inkscape:current-layer="Ebene_1" /><g
     id="g3337"
     transform="translate(-77.919084,-46.086288)"><path
       d="M 16,2 C 8.3,2 2,8.3 2,16 2,23.7 8.3,30 16,30 23.7,30 30,23.7 30,16 30,8.3 23.7,2 16,2 Z m 0,26 C 9.4,28 4,22.6 4,16 4,9.4 9.4,4 16,4 c 6.6,0 12,5.4 12,12 0,6.6 -5.4,12 -12,12 z"
       id="path3339"
       inkscape:connector-curvature="0" /><polygon
       points="10.1,15.6 8.9,17.2 14.7,21.4 23.3,11.3 21.7,10 14.4,18.7 "
       id="polygon3341" /></g><g
     id="g3393"
     transform="translate(-16.950233,-28.660938)"><g
       id="g3359"><g
         id="g3361"><rect
           id="rect3363"
           height="2"
           width="21"
           y="15"
           x="8"
           style="fill:#1d1d1b" /></g><g
         id="g3365"><rect
           id="rect3367"
           height="2"
           width="21"
           y="9.1999998"
           x="8"
           style="fill:#1d1d1b" /></g><g
         id="g3369"><rect
           id="rect3371"
           height="2"
           width="21"
           y="20.799999"
           x="8"
           style="fill:#1d1d1b" /></g></g><g
       id="g3373"><g
         id="g3375"><rect
           id="rect3377"
           height="2"
           width="2"
           y="15"
           x="3"
           style="fill:#1d1d1b" /></g><g
         id="g3379"><rect
           id="rect3381"
           height="2"
           width="2"
           y="9.1999998"
           x="3"
           style="fill:#1d1d1b" /></g><g
         id="g3383"><rect
           id="rect3385"
           height="2"
           width="2"
           y="20.799999"
           x="3"
           style="fill:#1d1d1b" /></g></g></g><path
     id="path3410"
     d="m -31.848729,10.009416 c 0,-0.1 0,-0.2999997 -0.1,-0.3999997 -0.2,-1 -1.1,-1.7 -2.1,-1.7 l -23.6,0 c -1.2,0 -2.2,1 -2.2,2.1999997 l 0,18.6 c 0,1.2 1,2.2 2.2,2.2 l 23.6,0 c 1.2,0 2.2,-1 2.2,-2.2 l 0,-18.7 c 0,0.1 0,0 0,0 z m -2.6,-0.1 -11.4,9.1999997 -11.5,-9.1999997 22.9,0 z m 0.4,18.9999997 -23.6,0 c -0.1,0 -0.2,-0.1 -0.2,-0.2 l 0,-16.6 12,9.6 12,-9.7 0,16.7 c 0,0.1 -0.1,0.2 -0.2,0.2 z"
     inkscape:connector-curvature="0" /><path
     id="path3420"
     d="m 47.322319,-53.655118 -4.315791,-4.329145 c -0.947367,-0.950306 -2.842102,-0.84471 -3.894734,0.316761 l -15.157897,15.099232 -3.894738,11.931552 11.894735,-3.801203 15.157898,-15.204811 c 0.631574,-0.63354 0.947367,-1.372665 0.947367,-2.217379 0,-0.739114 -0.210528,-1.372653 -0.73684,-1.795007 z m -1.684216,2.42855 -14.736841,14.782454 -7.473684,2.42855 2.421051,-7.49682 14.736843,-14.782454 c 0.210528,-0.211186 0.582244,-0.488352 0.947368,-0.211186 l 4.315791,4.329152 c 0.105264,0.1056 0.105264,0.211175 0.105264,0.211175 0,0.316773 -0.105264,0.527943 -0.315792,0.739129 z"
     inkscape:connector-curvature="0" /><g
     id="phone-icon"
     transform="translate(-32.592038,22.176513)"><path
       id="path3431"
       d="m 20,30 0,0 C 16.7,30 13.3,26.6 9.8,19.5 3.3,6.6 7.9,4.2 9.6,3.3 c 0,0 0.1,-0.1 0.1,-0.1 0.1,0 2,-1 2.2,-1.1 C 12.1,2 12.3,2 12.5,2 c 0.3,0.1 0.6,0.3 0.7,0.5 l 3.7,7.3 c 0.1,0.2 0.1,0.5 0.1,0.8 -0.1,0.3 -0.3,0.5 -0.5,0.6 l -2.2,1.1 c -0.2,0.2 -0.1,1.6 0.8,3.8 1.2,2.7 2.7,4.1 3.1,4.1 0.1,-0.1 0.9,-0.5 1.5,-0.8 0.4,-0.2 0.8,-0.4 0.8,-0.4 0.5,-0.2 1,0.1 1.2,0.5 l 3.7,7.3 c 0.2,0.5 0.1,1.1 -0.4,1.3 0,0 -2.1,1.1 -2.3,1.1 l -0.1,0.1 C 22.1,29.6 21.2,30 20,30 Z M 11.9,4.4 C 11.3,4.7 10.6,5 10.6,5 9.3,5.7 6,7.4 11.6,18.6 c 3.1,6.2 6,9.4 8.4,9.4 0.7,0 1.3,-0.3 1.8,-0.5 l 0.1,-0.1 c 0.1,0 0.7,-0.4 1.3,-0.6 l -2.8,-5.5 c -0.6,0.3 -1.3,0.6 -1.3,0.7 -0.2,0.1 -0.5,0.2 -0.8,0.2 l 0,0 c -2.6,0 -5.1,-4.8 -5.8,-7.5 -0.7,-2.6 0.1,-3.7 0.9,-4.1 L 14.7,9.9 11.9,4.4 Z"
       inkscape:connector-curvature="0" /></g><g
     id="g3442"
     transform="translate(-88.692804,48.545471)"><path
       id="path3444"
       d="m 16,6.7 c -4.1,0 -5.1,3.3 -5.1,4.3 l 2,0 c 0,0 0.1,-2.3 3.1,-2.3 2.9,0 3.1,1.9 3.1,2.3 l 0,0.2 c 0,0.1 0.2,1.4 -2,3.2 C 15,16.2 15,18.5 15,20.1 l 0,-0.1 2,0 0,0.1 c 0,-1.4 0,-3 1.4,-4.1 2.8,-2.3 2.8,-4.5 2.7,-5 C 21,9.4 20,6.7 16,6.7 Z"
       inkscape:connector-curvature="0" /><rect
       id="rect3446"
       height="2"
       width="2"
       y="22"
       x="15" /><path
       id="path3448"
       d="M 16,2 C 8.3,2 2,8.3 2,16 2,23.7 8.3,30 16,30 23.7,30 30,23.7 30,16 30,8.3 23.7,2 16,2 Z m 0,26 C 9.4,28 4,22.6 4,16 4,9.4 9.4,4 16,4 c 6.6,0 12,5.4 12,12 0,6.6 -5.4,12 -12,12 z"
       inkscape:connector-curvature="0" /></g><g
     id="g3461"
     transform="translate(-14.812209,58.735589)"><path
       id="path3463"
       d="M 7,30 7,23 4.3,23 C 2.9,23 2,22.2 2,21 L 2,5.2 C 2,4 3,3 4.3,3 L 27.7,3 C 29,3 30,4 30,5.2 L 30,21 c 0,1.2 -0.9,2 -2.3,2 L 16.3,23 7,30 Z M 4,21 c 0,0 0.1,0 0.3,0 l 4.7,0 0,5 6.7,-5 12,0 c 0.2,0 0.3,0 0.3,-0.1 L 28,5.2 C 28,5.1 27.9,5 27.7,5 L 4.3,5 C 4.1,5 4,5.1 4,5.2 L 4,21 c 0,0 0,0 0,0 z"
       inkscape:connector-curvature="0" /></g><g
     id="g3474"
     transform="translate(-99.43303,15.012209)"><path
       id="path3476"
       d="M 21,24.7 C 20.4,24.2 19.6,24 18.9,23.9 18.1,23.7 17.3,23.5 16.7,23 l -0.1,-0.1 c 0,0 -0.3,-0.2 -0.3,-0.5 -0.1,-0.3 0.2,-0.7 0.4,-0.9 l 0,0 c 1.4,-1.8 2,-3.5 2,-5.3 0,-3.6 -2.9,-6.5 -6.5,-6.5 -3.6,0 -6.5,2.9 -6.5,6.5 0,1.6 0.7,3.4 2,5.2 l 0,0 c 0.2,0.3 0.4,0.6 0.4,1 0,0.3 -0.3,0.4 -0.3,0.4 0,0 0,0 0,0 L 7.6,23 C 7,23.5 6.2,23.7 5.4,23.9 4.6,24.1 3.9,24.2 3.3,24.7 1.9,25.7 2,27.1 2,27.2 l 0,2.8 20.2,0 0,-2.7 c 0,-0.2 0.1,-1.6 -1.2,-2.6 z M 4,28 4,27.9 4,27.2 c 0,0 0,-0.5 0.5,-0.9 C 4.7,26.1 5.3,26 5.8,25.9 6.7,25.7 7.9,25.4 8.9,24.6 9.2,24.4 9.8,23.9 10,22.9 10.2,22.1 9.9,21.2 9.3,20.4 l 0,0 C 8.2,18.9 7.7,17.5 7.7,16.3 c 0,-2.5 2,-4.5 4.5,-4.5 2.5,0 4.5,2 4.5,4.5 0,1.4 -0.5,2.6 -1.6,4 l 0,0 c -0.8,1.1 -0.8,2 -0.7,2.5 0.2,1 0.9,1.5 1.1,1.7 1,0.8 2.1,1.1 3.1,1.3 0.5,0.1 1.1,0.2 1.3,0.4 0.5,0.4 0.5,0.9 0.5,1 L 20.4,28 4,28 Z"
       inkscape:connector-curvature="0" /><path
       id="path3478"
       d="m 19.9,3.7 c 2.5,0 4.5,2.1 4.5,4.6 0,1.4 -0.5,2.7 -1.6,4.1 l 0,0 c -0.8,1.1 -0.8,2 -0.7,2.5 0.2,1 0.9,1.5 1.1,1.7 1,0.8 2.1,1.1 3.1,1.3 0.5,0.1 1.1,0.2 1.3,0.4 0.5,0.4 0.5,0.9 0.5,1 l 0,0.7 -8,0 0,2 10,0 0,-2.6 c 0,-0.2 0.1,-1.5 -1.2,-2.6 C 28.3,16.3 27.5,16.2 26.8,16 26,15.8 25.2,15.7 24.6,15.1 L 24.5,15 c 0,0 -0.3,-0.2 -0.3,-0.5 -0.1,-0.3 0.2,-0.7 0.4,-0.9 1.4,-1.8 2,-3.5 2,-5.3 0,-3.6 -2.9,-6.7 -6.5,-6.7 -3.6,0 -6.7,3.4 -6.7,6.4 l 2,0 c 0,-2 2,-4.3 4.5,-4.3 z"
       inkscape:connector-curvature="0" /></g><g
     id="g3490"
     transform="translate(-26.690118,-60.493735)"><path
       id="path3492"
       d="M 16,2 C 8.3,2 2,8.3 2,16 2,23.7 8.3,30 16,30 23.7,30 30,23.7 30,16 30,8.3 23.7,2 16,2 Z m 0,26 C 9.4,28 4,22.6 4,16 4,9.4 9.4,4 16,4 c 6.6,0 12,5.4 12,12 0,6.6 -5.4,12 -12,12 z"
       inkscape:connector-curvature="0" /><path
       id="path3494"
       d="M 17,15.6 17,7 C 17,6.4 16.6,6 16,6 15.4,6 15,6.4 15,7 l 0,9.4 4.3,4.3 c 0.2,0.2 0.5,0.3 0.7,0.3 0.2,0 0.5,-0.1 0.7,-0.3 0.4,-0.4 0.4,-1 0,-1.4 L 17,15.6 Z"
       inkscape:connector-curvature="0" /></g><g
     id="g3506"
     transform="translate(24.147333,71.588615)"><g
       id="g3508"><path
         id="path3510"
         d="M 26.8,28 5.2,28 C 3.9,28 3,27.1 3,25.9 L 3,6.1 C 3,4.9 3.9,4 5.2,4 l 7.9,0 1.2,3 12.5,0 C 28.1,7 29,7.8 29,9 l 0,16.9 C 29,27.1 28.1,28 26.8,28 Z M 5.2,6 C 5.1,6 5,6 5,6 L 5,25.9 C 5,26 5.1,26 5.2,26 l 21.6,0 c 0.1,0 0.2,0 0.2,0 L 27,9 c 0,0 -0.1,0 -0.2,0 L 12.9,9 11.7,6 5.2,6 Z"
         inkscape:connector-curvature="0" /></g></g></svg>